<svg
   width="1057mm"
   height="1850mm"
   viewBox="0 0 1057 1850"
   version="1.1"
   id="svg5"
   inkscape:version="1.4.3 (0d15f75, 2025-12-25)"
   sodipodi:docname="SISTEMAS ISOLADOS - R01 (1).svg"
   xmlns:inkscape="http://www.inkscape.org/namespaces/inkscape"
   xmlns:sodipodi="http://sodipodi.sourceforge.net/DTD/sodipodi-0.dtd"
   xmlns="http://www.w3.org/2000/svg"
   xmlns:svg="http://www.w3.org/2000/svg">
  <sodipodi:namedview
     id="namedview7"
     pagecolor="#0a0a0a"
     bordercolor="#000000"
     borderopacity="0.25"
     inkscape:showpageshadow="true"
     inkscape:pageopacity="0"
     inkscape:pagecheckerboard="false"
     inkscape:deskcolor="#4e4e4e"
     inkscape:document-units="mm"
     showgrid="false"
     showguides="true"
     showborder="true"
     borderlayer="true"
     shape-rendering="auto"
     inkscape:zoom="0.063452768"
     inkscape:cx="9195.8163"
     inkscape:cy="3443.5062"
     inkscape:window-width="1920"
     inkscape:window-height="1009"
     inkscape:window-x="1912"
     inkscape:window-y="-8"
     inkscape:window-maximized="1"
     inkscape:current-layer="svg5"
     inkscape:pageshadow="2"
     height="2250mm"
     width="3500mm" />
  <defs
     id="defs2" />
  <path
     id="path3884-1-4-1-6-8"
     d="m 620.9066,577.01361 -9.7822,0.0462 m -4.2541,-0.0462 h -10.0918"
     style="display:inline;fill:none;stroke:#ffffff;stroke-width:1.852;stroke-linecap:round;stroke-miterlimit:4;stroke-dasharray:none;stroke-opacity:1"
     sodipodi:nodetypes="cccc" />
  <text
     id="text506-7-1-3-2"
     style="font-style:normal;font-variant:normal;font-weight:normal;font-stretch:normal;font-size:141.111px;font-family:Calibri;-inkscape-font-specification:'Calibri, Normal';font-variant-ligatures:normal;font-variant-caps:normal;font-variant-numeric:normal;font-variant-east-asian:normal;fill:#3c78c8;fill-opacity:1;stroke-width:0.264583"
     y="198.96397"
     x="134.36739"><tspan
       y="198.96397"
       x="134.36739"
       sodipodi:role="line"
       style="stroke-width:0.264583"
       id="tspan4238-5">Setor Meireles</tspan></text>
  <text
     id="text506-7-1-3-6"
     style="font-style:normal;font-variant:normal;font-weight:normal;font-stretch:normal;font-size:141.111px;font-family:Calibri;-inkscape-font-specification:'Calibri, Normal';font-variant-ligatures:normal;font-variant-caps:normal;font-variant-numeric:normal;font-variant-east-asian:normal;fill:#3c78c8;fill-opacity:1;stroke-width:0.264583"
     y="171.72318"
     x="3651.9487"><tspan
       y="171.72318"
       x="3651.9487"
       sodipodi:role="line"
       style="stroke-width:0.264583"
       id="tspan4238-3" /></text>
  <text
     xml:space="preserve"
     style="font-size:21.1667px;font-family:Calibri;-inkscape-font-specification:'Calibri, Normal';text-align:center;text-anchor:middle;fill:#333333;fill-opacity:1;stroke:none;stroke-width:1.852;stroke-dasharray:none"
     x="3145.9133"
     y="757.88525"
     id="text3203"><tspan
       sodipodi:role="line"
       id="tspan3201"
       style="stroke-width:1.852"
       x="3145.9133"
       y="757.88525" /></text>
  <text
     id="text1982-4-9-7-3"
     style="font-style:normal;font-variant:normal;font-weight:normal;font-stretch:normal;font-size:56.4444px;font-family:Calibri;-inkscape-font-specification:'Calibri, Normal';font-variant-ligatures:normal;font-variant-caps:normal;font-variant-numeric:normal;font-variant-east-asian:normal;fill:#3c78c8;fill-opacity:1;stroke-width:0.264583"
     y="516.18146"
     x="734.1142"><tspan
       y="516.18146"
       x="734.1142"
       id="tspan1980-9-0-3-1"
       sodipodi:role="line"
       style="stroke-width:0.264583">RAP.SME.001</tspan></text>
  <circle
     inkscape:label="REL.ENG.001-01X"
     cy="-707.14642"
     cx="495.22321"
     id="REL.ENG.001-01X-61-1"
     style="fill:none;stroke:#708cd0;stroke-width:2.40681;stroke-miterlimit:4;stroke-dasharray:none;stroke-opacity:1"
     r="18.796598"
     transform="rotate(90)" />
  <path
     class="interactive-element"
     data-nome="Reservatório RAP SME 001"
     data-vazao="250 L/s"
     data-status="Normal"
     data-ultima-manutencao="10/02/2024"
     style="fill:#4d4d4d;fill-opacity:1;stroke:none;stroke-width:5.35308;stroke-dasharray:none"
     d="m 701.3654,511.33263 c -3.69,-1.3085 -8.0516,-5.411 -9.9048,-9.3163 -4.0329,-8.4987 1.2529,-20.2681 10.3233,-22.9857 7.249,-2.1718 15.3411,0.5693 19.533,6.6165 3.0817,4.4458 3.6661,12.1001 1.2806,16.7759 -2.1134,4.1427 -7.0764,8.2674 -11.1956,9.3047 -4.2497,1.07 -6.1113,0.9968 -10.0365,-0.3951 z"
     id="RAP_SME_001"
     inkscape:label="RAP.SME.001" />
  <path
     id="path5108-3-1-4-9-0-1-0-2-7"
     d="m 608.9124,499.20629 v -62.7044 l 0.023,-60.96938"
     style="display:inline;fill:none;stroke:#ffffff;stroke-width:1.852;stroke-linecap:round;stroke-miterlimit:4;stroke-dasharray:none;stroke-opacity:1"
     sodipodi:nodetypes="ccc" />
  <path
     id="path5108-3-1-4-9-0-1-0-2-7-1"
     d="m 735.3589,959.05681 v -62.7044 l 0.023,-60.9694"
     style="display:inline;fill:none;stroke:#ffffff;stroke-width:1.852;stroke-linecap:round;stroke-miterlimit:4;stroke-dasharray:none;stroke-opacity:1"
     sodipodi:nodetypes="ccc" />
  <g
     id="g33946"
     transform="translate(-3769.5976,81.617642)">
    <path
       id="path18518-8-9-8"
       d="m 4549.6517,571.16536 -5.0007,-12.4989"
       style="fill:none;stroke:#ffff64;stroke-width:1.85208;stroke-linecap:round;stroke-miterlimit:4;stroke-dasharray:none;stroke-opacity:1" />
    <path
       id="path18520-3-8-1"
       d="m 4544.651,558.66646 h -15.0018"
       style="fill:none;stroke:#ffff64;stroke-width:1.85208;stroke-linecap:round;stroke-miterlimit:4;stroke-dasharray:none;stroke-opacity:1" />
    <path
       id="path18522-2-5-7"
       d="m 4529.6492,558.66646 -5.0007,12.4989"
       style="fill:none;stroke:#ffff64;stroke-width:1.85208;stroke-linecap:round;stroke-miterlimit:4;stroke-dasharray:none;stroke-opacity:1" />
    <path
       id="path18524-4-7-3"
       d="m 4524.6485,571.16536 5.0007,12.5016"
       style="fill:none;stroke:#ffff64;stroke-width:1.85208;stroke-linecap:round;stroke-miterlimit:4;stroke-dasharray:none;stroke-opacity:1" />
    <path
       id="path18526-8-1-3"
       d="m 4529.6492,583.66696 h 15.0018"
       style="fill:none;stroke:#ffff64;stroke-width:1.85208;stroke-linecap:round;stroke-miterlimit:4;stroke-dasharray:none;stroke-opacity:1" />
    <path
       id="path18528-7-3-8"
       d="m 4544.651,583.66696 5.0007,-12.5016"
       style="fill:none;stroke:#ffff64;stroke-width:1.85208;stroke-linecap:round;stroke-miterlimit:4;stroke-dasharray:none;stroke-opacity:1" />
    <text
       id="text442-9-6-31"
       style="font-size:24.6944px;font-family:Calibri;fill:#3c78c8;fill-opacity:1;stroke-width:0.264583"
       y="578.66656"
       x="4529.8823"><tspan
         y="578.66656"
         x="4529.8823"
         id="tspan440-8-8-4"
         sodipodi:role="line"
         style="stroke-width:0.264583">D</tspan></text>
  </g>
  <g
     id="g34773"
     transform="translate(-3761.0778,87.565132)">
    <path
       id="path5994-5-1"
       d="m 4429.8672,560.83 h 5.0006"
       style="display:inline;fill:none;stroke:#ffffff;stroke-width:1.85208;stroke-linecap:round;stroke-miterlimit:4;stroke-dasharray:none;stroke-opacity:1" />
    <path
       id="path5996-3-2"
       d="m 4429.8672,560.83 -5.0006,4.3009"
       style="display:inline;fill:none;stroke:#ffffff;stroke-width:1.85208;stroke-linecap:round;stroke-miterlimit:4;stroke-dasharray:none;stroke-opacity:1" />
    <path
       id="path5998-7-0"
       d="m 4434.8678,560.83 5.0007,4.3009"
       style="display:inline;fill:none;stroke:#ffffff;stroke-width:1.85208;stroke-linecap:round;stroke-miterlimit:4;stroke-dasharray:none;stroke-opacity:1" />
  </g>
  <path
     id="RAP.SME.001-02-1"
     style="fill:none;stroke:#ffff64;stroke-width:1.85208;stroke-linecap:round;stroke-miterlimit:4;stroke-dasharray:none;stroke-opacity:1"
     d="m 721.2977,576.85899 a 50.0001,50.0001 0 1 0 -100.0002,0 50.0001,50.0001 0 1 0 100.0002,0 z"
     inkscape:label="RAP.SME.001-02-1" />
  <path
     id="RAP.SME.001-02-2"
     style="fill:none;stroke:#ffff64;stroke-width:1.85208;stroke-linecap:round;stroke-miterlimit:4;stroke-dasharray:none;stroke-opacity:1"
     d="m 596.2975,576.85899 a 50.000032,50.000032 0 1 0 -100,0 50.000032,50.000032 0 1 0 100,0 z"
     inkscape:label="RAP.SME.001-02-2" />
  <path
     id="path3876-4-0-8-3"
     d="m 546.3005,526.85909 v -25.0004"
     style="display:inline;fill:none;stroke:#ffffff;stroke-width:1.85208;stroke-linecap:round;stroke-miterlimit:4;stroke-dasharray:none;stroke-opacity:1" />
  <path
     id="path3878-4-9-5-0"
     d="m 671.2898,526.85909 v -25.0004"
     style="display:inline;fill:none;stroke:#ffffff;stroke-width:1.85208;stroke-linecap:round;stroke-miterlimit:4;stroke-dasharray:none;stroke-opacity:1" />
  <path
     id="path3882-7-3-7-4"
     d="m 546.3005,627.79018 v 50.31203"
     style="display:inline;fill:none;stroke:#ffffff;stroke-width:1.85777;stroke-linecap:round;stroke-miterlimit:4;stroke-dasharray:none;stroke-opacity:1" />
  <path
     id="path3884-1-4-1-6"
     d="m 671.2898,627.7844 v 49.9999"
     style="display:inline;fill:none;stroke:#ffffff;stroke-width:1.852;stroke-linecap:round;stroke-miterlimit:4;stroke-dasharray:none;stroke-opacity:1" />
  <path
     id="path3884-1-1-1-2-71-6"
     d="m 671.4932,501.99999 h -60.2091 m -4.5728,-0.065 -60.3797,0.065"
     style="display:inline;fill:none;stroke:#ffffff;stroke-width:1.852;stroke-linecap:round;stroke-miterlimit:4;stroke-dasharray:none;stroke-opacity:1"
     sodipodi:nodetypes="cccc" />
  <path
     id="path9178-9-1-3-5-5"
     style="display:inline;fill:none;stroke:#ffffff;stroke-width:1.85208;stroke-linecap:round;stroke-miterlimit:4;stroke-dasharray:none;stroke-opacity:1"
     d="m 608.9124,499.99999 c -2.6667,0 -2.6667,4 0,4 2.6667,0 2.6667,-4 0,-4 z"
     sodipodi:nodetypes="sss" />
  <path
     id="path9178-9-1-3-5-5-2"
     style="display:inline;fill:none;stroke:#ffffff;stroke-width:1.85208;stroke-linecap:round;stroke-miterlimit:4;stroke-dasharray:none;stroke-opacity:1"
     d="m 608.9124,371.35919 c -2.6667,0 -2.6667,4 0,4 2.6667,0 2.6667,-4 0,-4 z"
     sodipodi:nodetypes="sss" />
  <path
     id="path5108-3-1-4-9-0-1-0-2-4"
     d="m 483.0679,373.35919 h 123.3716 m 4.994,0.0231 123.3234,-0.0231"
     style="display:inline;fill:none;stroke:#ffffff;stroke-width:1.852;stroke-linecap:round;stroke-miterlimit:4;stroke-dasharray:none;stroke-opacity:1"
     sodipodi:nodetypes="cccc" />
  <path
     id="path5108-3-1-4-9-0-1-0-2-4-2"
     d="m 611.7453,961.70847 121.2442,-0.0466 m 4.6033,0.007 123.6223,0.0396"
     style="display:inline;fill:none;stroke:#ffffff;stroke-width:1.85161;stroke-linecap:round;stroke-miterlimit:4;stroke-dasharray:none;stroke-opacity:1"
     sodipodi:nodetypes="cccc" />
  <path
     id="path5108-3-1-4-9-0-1-0-2-4-2-4"
     d="m 611.9615,1216.8192 122.4213,-0.047 m 4.8812,0.023 122.1673,0.023"
     style="display:inline;fill:none;stroke:#ffffff;stroke-width:1.85161;stroke-linecap:round;stroke-miterlimit:4;stroke-dasharray:none;stroke-opacity:1"
     sodipodi:nodetypes="cccc" />
  <path
     id="path5108-3-1-4-9-0-1-0-2-7-6"
     d="m 609.3207,806.88847 v -62.7044 -63.1427"
     style="display:inline;fill:none;stroke:#ffffff;stroke-width:1.852;stroke-linecap:round;stroke-miterlimit:4;stroke-dasharray:none;stroke-opacity:1"
     sodipodi:nodetypes="ccc" />
  <path
     id="path5108-3-1-4-9-0-1-0-2-7-6-5"
     d="m 609.3207,958.97024 v -61.1604 -61.58792"
     style="display:inline;fill:none;stroke:#ffffff;stroke-width:1.82906;stroke-linecap:round;stroke-miterlimit:4;stroke-dasharray:none;stroke-opacity:1"
     sodipodi:nodetypes="ccc" />
  <path
     id="path5108-3-1-4-9-0-1-0-2-7-6-5-0"
     d="m 609.3207,1086.8841 v -61.1604 -61.58788"
     style="display:inline;fill:none;stroke:#ffffff;stroke-width:1.82906;stroke-linecap:round;stroke-miterlimit:4;stroke-dasharray:none;stroke-opacity:1"
     sodipodi:nodetypes="ccc" />
  <path
     id="path5108-3-1-4-9-0-1-0-2-7-6-5-0-7"
     d="m 609.3207,1214.0089 v -61.1604 -61.5878"
     style="display:inline;fill:none;stroke:#ffffff;stroke-width:1.82906;stroke-linecap:round;stroke-miterlimit:4;stroke-dasharray:none;stroke-opacity:1"
     sodipodi:nodetypes="ccc" />
  <path
     id="path5108-3-1-4-9-0-1-0-2-7-6-5-0-7-28"
     d="m 609.3207,1341.8601 v -61.1604 -61.5878"
     style="display:inline;fill:none;stroke:#ffffff;stroke-width:1.82906;stroke-linecap:round;stroke-miterlimit:4;stroke-dasharray:none;stroke-opacity:1"
     sodipodi:nodetypes="ccc" />
  <path
     id="path5108-3-1-4-9-0-1-0-2-7-6-5-0-7-2"
     d="m 736.6964,1213.9525 v -61.1604 -61.5878"
     style="display:inline;fill:none;stroke:#ffffff;stroke-width:1.82906;stroke-linecap:round;stroke-miterlimit:4;stroke-dasharray:none;stroke-opacity:1"
     sodipodi:nodetypes="ccc" />
  <path
     id="path5108-3-1-4-9-0-1-0-2-7-6-5-0-3"
     d="m 484.1808,1089.1415 h 61.1603 61.588"
     style="display:inline;fill:none;stroke:#ffffff;stroke-width:1.82906;stroke-linecap:round;stroke-miterlimit:4;stroke-dasharray:none;stroke-opacity:1"
     sodipodi:nodetypes="ccc" />
  <path
     id="path3884-1-1-3-76-2"
     d="m 671.3698,678.67437 h -59.7485 m -4.6983,-0.01 -60.6917,0.01"
     style="display:inline;fill:none;stroke:#ffffff;stroke-width:1.85196;stroke-linecap:round;stroke-miterlimit:4;stroke-dasharray:none;stroke-opacity:1"
     sodipodi:nodetypes="cccc" />
  <path
     id="path9178-9-1-3-59"
     style="display:inline;fill:none;stroke:#ffffff;stroke-width:1.85208;stroke-linecap:round;stroke-miterlimit:4;stroke-dasharray:none;stroke-opacity:1"
     d="m 609.3207,676.67435 a 2,2 0 1 0 0,4 2,2 0 1 0 0,-4 z" />
  <path
     id="path9178-9-1-3-59-5"
     style="display:inline;fill:none;stroke:#ffffff;stroke-width:1.85208;stroke-linecap:round;stroke-miterlimit:4;stroke-dasharray:none;stroke-opacity:1"
     d="m 735.3704,959.70827 a 2,2 0 1 0 0,4 2,2 0 1 0 0,-4 z" />
  <path
     id="path9178-9-1-3-59-5-2"
     style="display:inline;fill:none;stroke:#ffffff;stroke-width:1.85208;stroke-linecap:round;stroke-miterlimit:4;stroke-dasharray:none;stroke-opacity:1"
     d="m 609.3207,959.68517 a 2,2 0 1 0 0,4 2,2 0 1 0 0,-4 z" />
  <path
     id="path9178-9-1-3-59-5-2-7"
     style="display:inline;fill:none;stroke:#ffffff;stroke-width:1.85208;stroke-linecap:round;stroke-miterlimit:4;stroke-dasharray:none;stroke-opacity:1"
     d="m 609.3207,1087.1415 a 2.000025,2.000025 0 1 0 0,4 2.000025,2.000025 0 1 0 0,-4 z" />
  <path
     id="path9178-9-1-3-59-5-2-7-3"
     style="display:inline;fill:none;stroke:#ffffff;stroke-width:1.85208;stroke-linecap:round;stroke-miterlimit:4;stroke-dasharray:none;stroke-opacity:1"
     d="m 609.3207,1214.7957 a 2.000025,2.000025 0 1 0 0,4 2.000025,2.000025 0 1 0 0,-4 z" />
  <path
     id="path9178-9-1-3-59-5-2-7-3-2"
     style="display:inline;fill:none;stroke:#ffffff;stroke-width:1.85208;stroke-linecap:round;stroke-miterlimit:4;stroke-dasharray:none;stroke-opacity:1"
     d="m 736.6964,1214.7662 a 2.000025,2.000025 0 1 0 0,4 2.000025,2.000025 0 1 0 0,-4 z" />
  <text
     id="text1758-1-2-4-4-1-1"
     style="font-style:normal;font-variant:normal;font-weight:normal;font-stretch:normal;font-size:28.5724px;font-family:Calibri;-inkscape-font-specification:'Calibri, Normal';font-variant-ligatures:normal;font-variant-caps:normal;font-variant-numeric:normal;font-variant-east-asian:normal;fill:#3c78c8;fill-opacity:1;stroke-width:0.264583"
     y="828.87079"
     x="433.55856"><tspan
       y="828.87079"
       x="433.55856"
       id="tspan1756-3-2-7-3-1-9"
       sodipodi:role="line"
       style="stroke-width:0.264583">UCP.SME.001</tspan></text>
  <text
     id="text1758-1-2-4-4-1-1-5"
     style="font-style:normal;font-variant:normal;font-weight:normal;font-stretch:normal;font-size:28.5724px;font-family:Calibri;-inkscape-font-specification:'Calibri, Normal';font-variant-ligatures:normal;font-variant-caps:normal;font-variant-numeric:normal;font-variant-east-asian:normal;fill:#3c78c8;fill-opacity:1;stroke-width:0.264583"
     y="1066.8192"
     x="391.58884"><tspan
       y="1066.8192"
       x="391.58884"
       id="tspan1756-3-2-7-3-1-9-8"
       sodipodi:role="line"
       style="stroke-width:0.264583">EPO.SME.XXX</tspan></text>
  <text
     id="text1758-1-2-4-4-1-1-5-8"
     style="font-style:normal;font-variant:normal;font-weight:normal;font-stretch:normal;font-size:28.5724px;font-family:Calibri;-inkscape-font-specification:'Calibri, Normal';font-variant-ligatures:normal;font-variant-caps:normal;font-variant-numeric:normal;font-variant-east-asian:normal;fill:#3c78c8;fill-opacity:1;stroke-width:0.264583"
     y="1196.3173"
     x="391.27194"><tspan
       y="1196.3173"
       x="391.27194"
       id="tspan1756-3-2-7-3-1-9-8-5"
       sodipodi:role="line"
       style="stroke-width:0.264583">EPO.SME.XXX</tspan></text>
  <text
     id="text1758-1-2-4-4-1-1-8"
     style="font-style:normal;font-variant:normal;font-weight:normal;font-stretch:normal;font-size:28.5724px;font-family:Calibri;-inkscape-font-specification:'Calibri, Normal';font-variant-ligatures:normal;font-variant-caps:normal;font-variant-numeric:normal;font-variant-east-asian:normal;fill:#3c78c8;fill-opacity:1;stroke-width:0.264583"
     y="827.28607"
     x="750.99652"><tspan
       y="827.28607"
       x="750.99652"
       id="tspan1756-3-2-7-3-1-9-2"
       sodipodi:role="line"
       style="stroke-width:0.264583">EPO.SME.XXX</tspan></text>
  <text
     id="text1758-1-2-4-4-1-1-8-4"
     style="font-style:normal;font-variant:normal;font-weight:normal;font-stretch:normal;font-size:28.5724px;font-family:Calibri;-inkscape-font-specification:'Calibri, Normal';font-variant-ligatures:normal;font-variant-caps:normal;font-variant-numeric:normal;font-variant-east-asian:normal;fill:#3c78c8;fill-opacity:1;stroke-width:0.264583"
     y="1057.9976"
     x="658.13617"><tspan
       y="1057.9976"
       x="658.13617"
       id="tspan1756-3-2-7-3-1-9-2-0"
       sodipodi:role="line"
       style="stroke-width:0.264583">EPO.SME.XXX</tspan></text>
  <text
     id="text1758-1-2-4-4-1-1-8-8"
     style="font-style:normal;font-variant:normal;font-weight:normal;font-stretch:normal;font-size:28.5724px;font-family:Calibri;-inkscape-font-specification:'Calibri, Normal';font-variant-ligatures:normal;font-variant-caps:normal;font-variant-numeric:normal;font-variant-east-asian:normal;fill:#3c78c8;fill-opacity:1;stroke-width:0.264583"
     y="943.16498"
     x="796.96869"><tspan
       y="943.16498"
       x="796.96869"
       id="tspan1756-3-2-7-3-1-9-2-5"
       sodipodi:role="line"
       style="stroke-width:0.264583">EPO.SME.XXX</tspan></text>
  <path
     id="VZ1.SAT.GAM.016-3-3"
     style="fill:none;stroke:#ffff64;stroke-width:2.54265;stroke-linecap:round;stroke-miterlimit:4;stroke-dasharray:none;stroke-opacity:1"
     d="m 623.0494,821.13085 a 13.728738,13.728681 0 1 0 -27.4574,0 13.728738,13.728681 0 1 0 27.4574,0 z"
     inkscape:label="VZ1.SAT.GAM.016" />
  <path
     id="path5108-9X"
     style="fill:none;stroke:#ffff64;stroke-width:2.54265;stroke-linecap:round;stroke-miterlimit:4;stroke-dasharray:none;stroke-opacity:1"
     d="m 749.0991,820.75971 a 13.728738,13.728681 0 1 0 -27.4574,0 13.728738,13.728681 0 1 0 27.4574,0 z"
     inkscape:label="path5108-9X" />
  <path
     id="path5108-7X"
     style="fill:none;stroke:#ffff64;stroke-width:2.54265;stroke-linecap:round;stroke-miterlimit:4;stroke-dasharray:none;stroke-opacity:1"
     d="m 750.4251,1076.3286 a 13.728738,13.728681 0 1 0 -27.4574,0 13.728738,13.728681 0 1 0 27.4574,0 z"
     inkscape:label="path5108-7X" />
  <text
     id="text1758-1-2-4-4-1-1-8-81"
     style="font-style:normal;font-variant:normal;font-weight:normal;font-stretch:normal;font-size:28.5724px;font-family:Calibri;-inkscape-font-specification:'Calibri, Normal';font-variant-ligatures:normal;font-variant-caps:normal;font-variant-numeric:normal;font-variant-east-asian:normal;fill:#3c78c8;fill-opacity:1;stroke-width:0.264583"
     y="1194.6312"
     x="796.68011"><tspan
       y="1194.6312"
       x="796.68011"
       id="tspan1756-3-2-7-3-1-9-2-9"
       sodipodi:role="line"
       style="stroke-width:0.264583">EPO.SME.XXX</tspan></text>
  <path
     id="path5108-6X"
     style="fill:none;stroke:#ffff64;stroke-width:2.54265;stroke-linecap:round;stroke-miterlimit:4;stroke-dasharray:none;stroke-opacity:1"
     d="m 888.9691,1216.7957 a 13.728738,13.728681 0 1 0 -27.4574,0 13.728738,13.728681 0 1 0 27.4574,0 z"
     inkscape:label="path5108-6X" />
  <path
     id="path5108-8X"
     style="fill:none;stroke:#ffff64;stroke-width:2.54265;stroke-linecap:round;stroke-miterlimit:4;stroke-dasharray:none;stroke-opacity:1"
     d="m 889.2574,961.68517 a 13.728738,13.728681 0 1 0 -27.4574,0 13.728738,13.728681 0 1 0 27.4574,0 z"
     inkscape:label="path5108-8X" />
  <path
     id="path5108-3X"
     style="fill:none;stroke:#ffff64;stroke-width:2.54265;stroke-linecap:round;stroke-miterlimit:4;stroke-dasharray:none;stroke-opacity:1"
     d="m 483.8775,1089.1415 a 13.728738,13.728681 0 1 0 -27.4574,0 13.728738,13.728681 0 1 0 27.4574,0 z"
     inkscape:label="path5108-3X" />
  <path
     id="path3884-1-4-1-6-9"
     d="m 608.8426,579.33873 v 72.79919"
     style="display:inline;fill:none;stroke:#ffffff;stroke-width:1.85545;stroke-linecap:round;stroke-miterlimit:4;stroke-dasharray:none;stroke-opacity:1" />
  <path
     id="path3884-1-4-1-6-92"
     d="m 754.3196,652.78435 h -75.3368 m -15.2132,0 h -54.7648"
     style="display:inline;fill:none;stroke:#ffffff;stroke-width:1.86138;stroke-linecap:round;stroke-miterlimit:4;stroke-dasharray:none;stroke-opacity:1"
     sodipodi:nodetypes="cccc" />
  <path
     id="path9178-9-1-3-5-5-3"
     style="display:inline;fill:none;stroke:#ffffff;stroke-width:1.85208;stroke-linecap:round;stroke-miterlimit:4;stroke-dasharray:none;stroke-opacity:1"
     d="m 608.8426,575.01361 c -2.6667,0 -2.6667,4 0,4 2.6666,0 2.6666,-4 0,-4 z"
     sodipodi:nodetypes="sss" />
  <path
     id="path5108-3-1-4-9-0-1-0-2-7-6-5-0-7-28-2"
     d="m 483.8666,1216.7957 h 61.1604 61.5878"
     style="display:inline;fill:none;stroke:#ffffff;stroke-width:1.82906;stroke-linecap:round;stroke-miterlimit:4;stroke-dasharray:none;stroke-opacity:1"
     sodipodi:nodetypes="ccc" />
  <path
     id="path5108-4X"
     style="fill:none;stroke:#ffff64;stroke-width:2.54265;stroke-linecap:round;stroke-miterlimit:4;stroke-dasharray:none;stroke-opacity:1"
     d="m 483.5608,1216.7957 a 13.728738,13.728681 0 1 0 -27.4574,0 13.728738,13.728681 0 1 0 27.4574,0 z"
     inkscape:label="path5108-4X" />
  <text
     id="text1758-1-2-4-4-1-1-5-0"
     style="font-style:normal;font-variant:normal;font-weight:normal;font-stretch:normal;font-size:28.5724px;font-family:Calibri;-inkscape-font-specification:'Calibri, Normal';font-variant-ligatures:normal;font-variant-caps:normal;font-variant-numeric:normal;font-variant-east-asian:normal;fill:#3c78c8;fill-opacity:1;stroke-width:0.264583"
     y="1392.3547"
     x="530.76068"><tspan
       y="1392.3547"
       x="530.76068"
       id="tspan1756-3-2-7-3-1-9-8-0"
       sodipodi:role="line"
       style="stroke-width:0.264583">EPO.SME.XXX</tspan></text>
  <path
     id="path5108-5X"
     style="fill:none;stroke:#ffff64;stroke-width:2.54265;stroke-linecap:round;stroke-miterlimit:4;stroke-dasharray:none;stroke-opacity:1"
     d="m 623.0494,1356.4495 a 13.728738,13.728681 0 1 0 -27.4574,0 13.728738,13.728681 0 1 0 27.4574,0 z"
     inkscape:label="path5108-5X" />
  <path
     style="fill:#333333;fill-opacity:1;stroke-width:5.17874;stroke-linecap:square;stroke-linejoin:round;stroke-dasharray:none"
     d="m 603.33146,831.36809 c -4.28598,-2.94087 -5.61684,-5.36702 -5.61684,-10.23845 0,-4.87146 1.33086,-7.29761 5.61684,-10.23848 3.25014,-2.23014 9.55781,-2.00821 13.02147,0.45818 6.31772,4.49861 6.31772,15.06196 0,19.56059 -3.46366,2.4664 -9.77133,2.68833 -13.02147,0.45816 z"
     id="UCP.SME.001"
     inkscape:label="UCP.SME.001" />
  <path
     style="fill:#333333;fill-opacity:1;stroke-width:2.58937;stroke-linecap:square;stroke-linejoin:round;stroke-dasharray:none"
     d="m 663.00664,625.05699 c -16.29674,-2.99744 -30.19848,-14.01816 -36.62627,-29.03575 -9.94595,-23.237 -0.3003,-50.4081 22.13055,-62.34062 24.26996,-12.91087 54.5338,-2.99418 66.65701,21.8417 3.17526,6.50518 4.59713,12.21748 4.87944,19.6061 0.77629,20.30825 -11.35856,39.10645 -30.30855,46.95081 -5.8719,2.43065 -9.97267,3.23348 -17.29925,3.3867 -4.62756,0.0968 -7.31758,-0.0198 -9.43293,-0.40894 z"
     id="RAP.SME.001-02"
     inkscape:label="RAP.SME.001-02" />
  <path
     style="fill:#333333;fill-opacity:1;stroke-width:2.58937;stroke-linecap:square;stroke-linejoin:round;stroke-dasharray:none"
     d="m 542.96545,625.58303 c -19.59398,-1.25632 -36.58102,-14.34002 -42.90377,-33.04487 -1.93437,-5.72281 -2.39316,-8.69352 -2.40321,-15.56009 -0.0106,-6.98802 0.34687,-9.41544 2.24525,-15.26395 6.49473,-20.01059 25.37883,-33.74837 46.39098,-33.74837 23.39737,0 43.52555,16.78281 48.13433,40.13406 0.76649,3.88345 0.66807,14.35963 -0.17119,18.22562 -2.88554,13.29287 -10.26795,24.21495 -21.23916,31.42273 -8.92863,5.86597 -19.16007,8.53334 -30.05323,7.83487 z"
     id="RAP.SME.001-01"
     inkscape:label="RAP.SME.001-01" />
  <text
     id="text1978-2-4-6-2"
     style="font-style:normal;font-variant:normal;font-weight:normal;font-stretch:normal;font-size:56.4444px;font-family:Calibri;-inkscape-font-specification:'Calibri, Normal';font-variant-ligatures:normal;font-variant-caps:normal;font-variant-numeric:normal;font-variant-east-asian:normal;fill:#3c78c8;fill-opacity:1;stroke-width:0.264583"
     y="594.66064"
     x="517.14496"><tspan
       y="594.66064"
       x="517.14496"
       id="tspan1976-6-0-6-6"
       sodipodi:role="line"
       style="stroke-width:0.264583">C1</tspan></text>
  <text
     id="text1986-5-9-1-8"
     style="font-style:normal;font-variant:normal;font-weight:normal;font-stretch:normal;font-size:56.4444px;font-family:Calibri;-inkscape-font-specification:'Calibri, Normal';font-variant-ligatures:normal;font-variant-caps:normal;font-variant-numeric:normal;font-variant-east-asian:normal;fill:#3c78c8;fill-opacity:1;stroke-width:0.264583"
     y="594.6275"
     x="642.16058"><tspan
       y="594.6275"
       x="642.16058"
       id="tspan1984-1-3-22-6"
       sodipodi:role="line"
       style="stroke-width:0.264583">C2</tspan></text>
  <path
     id="RAP.SMA.001-02x"
     style="fill:none;stroke:#ffff64;stroke-width:1.85208;stroke-linecap:round;stroke-miterlimit:4;stroke-dasharray:none;stroke-opacity:1"
     d="m 455.5671,436.05292 a 50.00005,50.00005 0 1 0 -100.0001,0 50.00005,50.00005 0 1 0 100.0001,0 z"
     inkscape:label="RAP.SMA.001-02x" />
  <path
     id="RAP.SMA.001-01x"
     style="fill:none;stroke:#ffff64;stroke-width:1.85208;stroke-linecap:round;stroke-miterlimit:4;stroke-dasharray:none;stroke-opacity:1"
     d="m 455.5671,311.0529 a 50.00005,50.00005 0 1 0 -100.0001,0 50.00005,50.00005 0 1 0 100.0001,0 z"
     inkscape:label="RAP.SMA.001-01x" />
  <path
     style="fill:#4d4d4d;fill-opacity:1;stroke-width:2.2625"
     d="m 401.4497,481.15088 c -24.7456,-2.36511 -43.2943,-24.66234 -40.9802,-49.26092 1.8037,-19.16456 15.1955,-35.00279 33.8706,-40.05791 3.692,-0.99934 4.6046,-1.08533 11.4348,-1.07659 6.7336,0.0106 7.7867,0.10768 11.3453,1.06441 13.0958,3.52029 23.9898,12.6373 29.8284,24.96318 0.9884,2.08677 2.273,5.55942 2.8543,7.71683 0.962,3.57162 1.0567,4.58788 1.0567,11.3456 0,6.78022 -0.093,7.76976 -1.0734,11.43477 -1.4727,5.50439 -5.1374,12.70608 -8.7188,17.13494 -9.5528,11.81153 -24.6049,18.17053 -39.6177,16.73569 z"
     id="RAP.SMA.001-02"
     inkscape:label="RAP.SMA.001-02" />
  <path
     style="fill:#4d4d4d;fill-opacity:1;stroke-width:2.26717"
     d="m 397.4749,355.93576 c -15.0783,-2.72441 -28.3953,-13.55302 -34.0574,-27.69341 -6.8697,-17.15584 -2.9747,-36.27728 10.0404,-49.29267 24.9052,-24.90522 67.3531,-13.31595 76.2847,20.82774 1.266,4.83949 1.6933,12.81827 0.9572,17.86758 -2.8133,19.29712 -18.0745,34.95966 -37.3586,38.34183 -4.168,0.73077 -11.6716,0.70643 -15.8663,-0.0511 z"
     id="RAP.SMA.001-01"
     inkscape:label="RAP.SMA.001-01" />
  <path
     id="path18514"
     style="fill:none;stroke:#ffff64;stroke-width:1.85208;stroke-linecap:round;stroke-miterlimit:4;stroke-dasharray:none;stroke-opacity:1"
     d="m 343.0671,436.05292 a 12.5,12.5 0 1 0 -25,0 12.5,12.5 0 1 0 25,0 z" />
  <path
     id="path18516"
     style="fill:none;stroke:#ffff64;stroke-width:1.85208;stroke-linecap:round;stroke-miterlimit:4;stroke-dasharray:none;stroke-opacity:1"
     d="m 343.0671,311.0529 a 12.5,12.5 0 1 0 -25,0 12.5,12.5 0 1 0 25,0 z" />
  <path
     id="path3212"
     d="M 355.5784,436.05186 H 343.0636"
     style="display:inline;fill:none;stroke:#ffffff;stroke-width:1.85208;stroke-linecap:round;stroke-miterlimit:4;stroke-dasharray:none;stroke-opacity:1" />
  <path
     id="path3214"
     d="M 318.0605,436.05186 H 305.5722"
     style="display:inline;fill:none;stroke:#ffffff;stroke-width:1.85208;stroke-linecap:round;stroke-miterlimit:4;stroke-dasharray:none;stroke-opacity:1" />
  <path
     id="path3218"
     d="M 305.5722,436.442 V 312.01631"
     style="display:inline;fill:none;stroke:#ffffff;stroke-width:1.86587;stroke-linecap:round;stroke-miterlimit:4;stroke-dasharray:none;stroke-opacity:1" />
  <path
     id="path3220"
     d="M 355.5784,311.05211 H 343.0636"
     style="display:inline;fill:none;stroke:#ffffff;stroke-width:1.85208;stroke-linecap:round;stroke-miterlimit:4;stroke-dasharray:none;stroke-opacity:1" />
  <path
     id="path3222"
     d="M 318.0605,311.05211 H 305.5722"
     style="display:inline;fill:none;stroke:#ffffff;stroke-width:1.85208;stroke-linecap:round;stroke-miterlimit:4;stroke-dasharray:none;stroke-opacity:1" />
  <path
     id="path5724"
     d="m 455.5644,436.05186 h 25.0032"
     style="display:inline;fill:none;stroke:#ffffff;stroke-width:1.85208;stroke-linecap:round;stroke-miterlimit:4;stroke-dasharray:none;stroke-opacity:1" />
  <path
     id="path5726"
     d="M 480.5676,436.05186 V 375.55223"
     style="display:inline;fill:none;stroke:#ffffff;stroke-width:1.85208;stroke-linecap:round;stroke-miterlimit:4;stroke-dasharray:none;stroke-opacity:1" />
  <path
     id="path5728"
     d="M 480.5676,371.55173 V 313.05236"
     style="display:inline;fill:none;stroke:#ffffff;stroke-width:1.85208;stroke-linecap:round;stroke-miterlimit:4;stroke-dasharray:none;stroke-opacity:1" />
  <path
     id="path5730"
     d="m 455.5644,311.05211 h 22.9923"
     style="display:inline;fill:none;stroke:#ffffff;stroke-width:1.85208;stroke-linecap:round;stroke-miterlimit:4;stroke-dasharray:none;stroke-opacity:1" />
  <path
     id="path9166"
     d="M 342.2434,436.05186 324.728,425.93155"
     style="display:inline;fill:none;stroke:#ffffff;stroke-width:1.85208;stroke-linecap:round;stroke-miterlimit:4;stroke-dasharray:none;stroke-opacity:1" />
  <path
     id="path9168"
     d="M 342.2434,436.05186 324.728,446.17482"
     style="display:inline;fill:none;stroke:#ffffff;stroke-width:1.85208;stroke-linecap:round;stroke-miterlimit:4;stroke-dasharray:none;stroke-opacity:1" />
  <path
     id="path9170"
     d="M 324.728,446.17482 V 425.93155"
     style="display:inline;fill:none;stroke:#ffffff;stroke-width:1.85208;stroke-linecap:round;stroke-miterlimit:4;stroke-dasharray:none;stroke-opacity:1" />
  <path
     id="path9172"
     d="M 342.2434,311.05211 324.728,321.17507"
     style="display:inline;fill:none;stroke:#ffffff;stroke-width:1.85208;stroke-linecap:round;stroke-miterlimit:4;stroke-dasharray:none;stroke-opacity:1" />
  <path
     id="path9174"
     d="M 342.2434,311.05211 324.728,300.9318"
     style="display:inline;fill:none;stroke:#ffffff;stroke-width:1.85208;stroke-linecap:round;stroke-miterlimit:4;stroke-dasharray:none;stroke-opacity:1" />
  <path
     id="path9176"
     d="m 324.728,300.9318 v 20.24327"
     style="display:inline;fill:none;stroke:#ffffff;stroke-width:1.85208;stroke-linecap:round;stroke-miterlimit:4;stroke-dasharray:none;stroke-opacity:1" />
  <path
     id="path9178-7"
     style="display:inline;fill:none;stroke:#ffffff;stroke-width:1.85208;stroke-linecap:round;stroke-miterlimit:4;stroke-dasharray:none;stroke-opacity:1"
     d="m 482.567,373.55278 a 1.9999999,1.9999999 0 1 0 -3.9999,0 1.9999999,1.9999999 0 1 0 3.9999,0 z" />
  <path
     id="path9208"
     style="display:inline;fill:none;stroke:#ffffff;stroke-width:1.85208;stroke-linecap:round;stroke-miterlimit:4;stroke-dasharray:none;stroke-opacity:1"
     d="m 482.567,311.0529 a 1.9999999,1.9999999 0 1 0 -3.9999,0 1.9999999,1.9999999 0 1 0 3.9999,0 z" />
  <text
     id="text1086"
     style="font-style:normal;font-variant:normal;font-weight:normal;font-stretch:normal;font-size:56.4444px;font-family:Calibri;-inkscape-font-specification:'Calibri, Normal';font-variant-ligatures:normal;font-variant-caps:normal;font-variant-numeric:normal;font-variant-east-asian:normal;fill:#3c78c8;fill-opacity:1;stroke-width:0.264583"
     y="454.10632"
     x="376.27634"><tspan
       y="454.10632"
       x="376.27634"
       id="tspan1084"
       sodipodi:role="line"
       style="stroke-width:0.264583">C2</tspan></text>
  <text
     id="text1090"
     style="font-style:normal;font-variant:normal;font-weight:normal;font-stretch:normal;font-size:56.4444px;font-family:Calibri;-inkscape-font-specification:'Calibri, Normal';font-variant-ligatures:normal;font-variant-caps:normal;font-variant-numeric:normal;font-variant-east-asian:normal;fill:#3c78c8;fill-opacity:1;stroke-width:0.264583"
     y="328.8414"
     x="376.36423"><tspan
       y="328.8414"
       x="376.36423"
       id="tspan1088"
       sodipodi:role="line"
       style="stroke-width:0.264583">C1</tspan></text>
  <text
     id="RAP.SMA"
     style="font-style:normal;font-variant:normal;font-weight:normal;font-stretch:normal;font-size:56.4444px;font-family:Calibri;-inkscape-font-specification:'Calibri, Normal';font-variant-ligatures:normal;font-variant-caps:normal;font-variant-numeric:normal;font-variant-east-asian:normal;fill:#3c78c8;fill-opacity:1;stroke-width:0.264583"
     y="535.99146"
     x="76.784134"
     inkscape:label="RAP.SMA"><tspan
       y="535.99146"
       x="76.784134"
       id="tspan1080"
       sodipodi:role="line"
       style="stroke-width:0.264583">RAP.SMA.001</tspan></text>
  <circle
     inkscape:label="RAP.SMA.001"
     cy="516.67999"
     cx="409.51022"
     id="RAP.SMA.001-1"
     style="fill:none;stroke:#708cd0;stroke-width:2.40681;stroke-miterlimit:4;stroke-dasharray:none;stroke-opacity:1"
     r="18.796598" />
  <path
     class="interactive-element"
     data-nome="Reservatório RAP.SAM.001"
     data-vazao="250 L/s"
     data-status="Atenção"
     data-ultima-manutencao="10/02/2023"
     data-numero-inscricoes = "2200 mil"
     style="fill:#4d4d4d;stroke-width:0.516131"
     d="m 404.6923,533.31897 c -4.8805,-1.48987 -9.5409,-5.90048 -11.3776,-10.76802 -0.8848,-2.34447 -1.0666,-3.73247 -0.8941,-6.82704 0.6472,-11.61018 11.914,-19.10292 22.9873,-15.28736 3.6142,1.24539 7.9124,5.20727 9.7713,9.00642 1.2041,2.46142 1.4367,3.60203 1.442,7.07522 0.01,3.64516 -0.1963,4.55348 -1.6899,7.58825 -3.0993,6.29841 -8.6191,9.73878 -15.4842,9.65094 -1.9055,-0.0238 -4.0452,-0.22172 -4.7548,-0.43841 z"
     id="RAP.SMA.001"
     inkscape:label="RAP.SMA.001" />
</svg>
